<svg width="1184" height="379" viewBox="0 0 1184 379" fill="none" xmlns="http://www.w3.org/2000/svg">
<path d="M56.3424 121.712L89.0272 64.5136H154.397L187.082 121.712L154.397 178.91H89.0272L56.3424 121.712Z" stroke="#144170" stroke-width="2" stroke-linejoin="round"/>
<g filter="url(#filter0_d_0_1)">
<path d="M172.918 191.44L205.603 134.241H270.973L303.658 191.44L270.973 248.638H205.603L172.918 191.44Z" stroke="#144170" stroke-width="2" stroke-linejoin="round"/>
</g>
<path d="M56.3424 256.809L89.0272 199.611H154.397L187.082 256.809L154.397 314.008H89.0272L56.3424 256.809Z" stroke="#144170" stroke-width="2" stroke-linejoin="round"/>
<path d="M437.864 166H431.045C430.335 162.307 429.004 158.738 427.05 155.293C425.097 151.813 422.576 148.688 419.487 145.918C416.433 143.113 412.881 140.893 408.833 139.26C404.785 137.626 400.31 136.81 395.41 136.81C388.237 136.81 381.631 138.727 375.594 142.562C369.593 146.362 364.781 151.955 361.159 159.342C357.572 166.728 355.779 175.766 355.779 186.455C355.779 197.214 357.572 206.288 361.159 213.674C364.781 221.06 369.593 226.653 375.594 230.453C381.631 234.217 388.237 236.099 395.41 236.099C400.31 236.099 404.785 235.3 408.833 233.702C412.881 232.069 416.433 229.867 419.487 227.097C422.576 224.292 425.097 221.149 427.05 217.669C429.004 214.189 430.335 210.602 431.045 206.909H437.864C437.082 211.312 435.573 215.627 433.336 219.853C431.134 224.079 428.222 227.914 424.6 231.359C421.013 234.768 416.77 237.484 411.869 239.509C407.004 241.497 401.518 242.491 395.41 242.491C386.319 242.491 378.311 240.183 371.386 235.567C364.462 230.915 359.028 224.381 355.087 215.964C351.18 207.548 349.227 197.712 349.227 186.455C349.227 175.197 351.18 165.361 355.087 156.945C359.028 148.528 364.462 142.012 371.386 137.396C378.311 132.744 386.319 130.418 395.41 130.418C401.518 130.418 407.004 131.43 411.869 133.454C416.77 135.442 421.013 138.141 424.6 141.55C428.222 144.924 431.134 148.724 433.336 152.95C435.573 157.175 437.082 161.526 437.864 166ZM467.667 187.946V241H461.168V131.909H467.667V172.126H468.306C470.223 167.864 473.277 164.473 477.468 161.952C481.694 159.395 486.754 158.116 492.649 158.116C498.153 158.116 503 159.288 507.191 161.632C511.381 163.94 514.648 167.261 516.992 171.593C519.371 175.89 520.561 181.039 520.561 187.04V241H514.115V187.307C514.115 180.311 512.038 174.7 507.883 170.474C503.728 166.249 498.242 164.136 491.424 164.136C486.843 164.136 482.759 165.13 479.172 167.119C475.586 169.107 472.762 171.895 470.703 175.482C468.679 179.033 467.667 183.188 467.667 187.946ZM579.354 242.705C571.968 242.705 565.54 240.876 560.072 237.218C554.603 233.56 550.377 228.553 547.394 222.197C544.411 215.84 542.92 208.596 542.92 200.464C542.92 192.296 544.411 185.016 547.394 178.624C550.412 172.232 554.55 167.19 559.805 163.496C565.061 159.803 571.062 157.957 577.809 157.957C582.39 157.957 586.723 158.88 590.807 160.727C594.926 162.538 598.548 165.165 601.673 168.61C604.834 172.055 607.302 176.21 609.077 181.075C610.888 185.94 611.794 191.408 611.794 197.481V201.529H547.021V195.616H605.295C605.295 189.686 604.088 184.342 601.673 179.583C599.258 174.825 595.974 171.043 591.819 168.237C587.664 165.432 582.994 164.029 577.809 164.029C572.376 164.029 567.529 165.556 563.268 168.61C559.042 171.629 555.686 175.712 553.2 180.862C550.75 186.011 549.471 191.763 549.365 198.12V200.783C549.365 207.602 550.555 213.727 552.934 219.161C555.349 224.558 558.793 228.837 563.268 231.998C567.742 235.123 573.104 236.685 579.354 236.685C583.829 236.685 587.646 235.94 590.807 234.448C594.003 232.921 596.613 231.075 598.637 228.908C600.661 226.742 602.188 224.647 603.218 222.623L609.131 225.02C607.888 227.754 605.952 230.489 603.324 233.223C600.732 235.922 597.43 238.177 593.417 239.988C589.439 241.799 584.752 242.705 579.354 242.705ZM634.166 241V159.182H640.505V171.54H641.144C642.706 167.42 645.405 164.153 649.241 161.739C653.076 159.324 657.692 158.116 663.09 158.116C669.02 158.116 673.797 159.537 677.419 162.378C681.077 165.219 683.704 169.072 685.302 173.937H685.888C687.486 169.143 690.345 165.308 694.464 162.431C698.619 159.555 703.733 158.116 709.805 158.116C717.724 158.116 723.761 160.62 727.916 165.627C732.106 170.599 734.202 177.417 734.202 186.082V241H727.703V186.082C727.703 179.263 726.069 173.901 722.802 169.995C719.535 166.089 714.741 164.136 708.42 164.136C701.673 164.136 696.488 166.249 692.866 170.474C689.244 174.7 687.433 180.08 687.433 186.614V241H680.934V185.656C680.934 179.299 679.336 174.132 676.14 170.155C672.944 166.142 668.15 164.136 661.758 164.136C657.426 164.136 653.68 165.13 650.519 167.119C647.394 169.107 644.961 171.842 643.221 175.322C641.517 178.802 640.665 182.797 640.665 187.307V241H634.166ZM822.265 159.182C821.697 152.399 818.927 146.913 813.956 142.722C809.02 138.532 802.627 136.437 794.779 136.437C789.488 136.437 784.783 137.413 780.664 139.366C776.544 141.32 773.313 143.983 770.969 147.357C768.625 150.73 767.453 154.601 767.453 158.969C767.453 161.774 767.986 164.313 769.051 166.586C770.152 168.823 771.697 170.83 773.686 172.605C775.674 174.345 778.036 175.872 780.77 177.186C783.505 178.5 786.523 179.654 789.826 180.648L801.757 184.164C805.841 185.407 809.605 186.845 813.05 188.479C816.53 190.112 819.549 192.065 822.105 194.338C824.698 196.575 826.704 199.203 828.125 202.222C829.581 205.24 830.309 208.72 830.309 212.662C830.309 218.415 828.817 223.564 825.834 228.109C822.887 232.655 818.679 236.241 813.21 238.869C807.777 241.462 801.367 242.758 793.98 242.758C786.949 242.758 780.824 241.568 775.603 239.189C770.419 236.81 766.317 233.507 763.299 229.281C760.28 225.02 758.576 220.119 758.185 214.58H765.003C765.358 219.089 766.797 222.996 769.318 226.298C771.875 229.565 775.266 232.087 779.492 233.862C783.718 235.638 788.547 236.526 793.98 236.526C799.84 236.526 805.007 235.531 809.481 233.543C813.956 231.518 817.453 228.713 819.975 225.126C822.496 221.54 823.757 217.367 823.757 212.609C823.757 208.773 822.851 205.489 821.04 202.754C819.229 200.02 816.548 197.658 812.997 195.67C809.481 193.681 805.113 191.906 799.893 190.343L787.162 186.508C778.64 183.915 772.123 180.382 767.613 175.908C763.139 171.433 760.902 165.858 760.902 159.182C760.902 153.571 762.393 148.599 765.376 144.267C768.359 139.899 772.407 136.472 777.521 133.987C782.67 131.501 788.476 130.258 794.939 130.258C801.438 130.258 807.173 131.518 812.145 134.04C817.116 136.526 821.058 139.952 823.97 144.32C826.882 148.653 828.498 153.607 828.817 159.182H822.265ZM876.012 242.758C871.289 242.758 866.956 241.817 863.015 239.935C859.108 238.053 855.966 235.3 853.586 231.678C851.243 228.056 850.071 223.653 850.071 218.468C850.071 215.059 850.674 212.058 851.882 209.466C853.089 206.874 854.953 204.636 857.475 202.754C859.996 200.872 863.228 199.327 867.169 198.12C871.111 196.877 875.816 195.918 881.285 195.244C885.44 194.746 889.151 194.267 892.418 193.805C895.685 193.308 898.242 192.545 900.088 191.515C901.971 190.485 902.912 188.923 902.912 186.827V183.418C902.912 177.452 901.029 172.712 897.265 169.196C893.501 165.68 888.316 163.923 881.711 163.923C875.852 163.923 870.916 165.219 866.903 167.811C862.926 170.368 860.138 173.67 858.54 177.719L852.414 175.428C853.977 171.522 856.232 168.273 859.179 165.68C862.162 163.088 865.571 161.153 869.407 159.874C873.277 158.596 877.326 157.957 881.551 157.957C885.209 157.957 888.689 158.472 891.992 159.501C895.33 160.531 898.295 162.094 900.887 164.189C903.515 166.284 905.593 168.965 907.12 172.232C908.647 175.464 909.41 179.335 909.41 183.844V241H902.912V226.245H902.432C901.012 229.299 899.059 232.087 896.573 234.608C894.123 237.094 891.157 239.082 887.677 240.574C884.233 242.03 880.344 242.758 876.012 242.758ZM876.651 236.739C881.765 236.739 886.292 235.496 890.234 233.01C894.211 230.489 897.319 227.044 899.556 222.676C901.793 218.308 902.912 213.354 902.912 207.815V195.776C902.095 196.487 900.905 197.126 899.343 197.694C897.816 198.227 896.076 198.706 894.123 199.132C892.205 199.523 890.181 199.878 888.05 200.197C885.955 200.482 883.913 200.748 881.924 200.996C875.958 201.707 871.093 202.808 867.329 204.299C863.6 205.755 860.866 207.673 859.126 210.052C857.422 212.431 856.569 215.308 856.569 218.681C856.569 224.256 858.487 228.66 862.322 231.891C866.157 235.123 870.934 236.739 876.651 236.739ZM967.551 159.182V164.988H931.276V159.182H967.551ZM943.208 241V146.451C943.208 142.332 944.149 138.816 946.031 135.904C947.913 132.992 950.381 130.773 953.435 129.246C956.525 127.719 959.845 126.955 963.396 126.955C965.278 126.955 966.876 127.115 968.19 127.435C969.54 127.719 970.712 128.056 971.706 128.447L969.788 134.2C968.972 133.915 968.084 133.667 967.125 133.454C966.202 133.241 965.101 133.134 963.822 133.134C959.703 133.134 956.312 134.395 953.648 136.916C950.985 139.437 949.653 142.953 949.653 147.463L949.6 241H943.208ZM1016.32 242.705C1008.93 242.705 1002.5 240.876 997.034 237.218C991.566 233.56 987.34 228.553 984.357 222.197C981.374 215.84 979.882 208.596 979.882 200.464C979.882 192.296 981.374 185.016 984.357 178.624C987.375 172.232 991.512 167.19 996.768 163.496C1002.02 159.803 1008.03 157.957 1014.77 157.957C1019.35 157.957 1023.69 158.88 1027.77 160.727C1031.89 162.538 1035.51 165.165 1038.64 168.61C1041.8 172.055 1044.26 176.21 1046.04 181.075C1047.85 185.94 1048.76 191.408 1048.76 197.481V201.529H983.984V195.616H1042.26C1042.26 189.686 1041.05 184.342 1038.64 179.583C1036.22 174.825 1032.94 171.043 1028.78 168.237C1024.63 165.432 1019.96 164.029 1014.77 164.029C1009.34 164.029 1004.49 165.556 1000.23 168.61C996.005 171.629 992.649 175.712 990.163 180.862C987.713 186.011 986.434 191.763 986.328 198.12V200.783C986.328 207.602 987.517 213.727 989.897 219.161C992.311 224.558 995.756 228.837 1000.23 231.998C1004.7 235.123 1010.07 236.685 1016.32 236.685C1020.79 236.685 1024.61 235.94 1027.77 234.448C1030.97 232.921 1033.58 231.075 1035.6 228.908C1037.62 226.742 1039.15 224.647 1040.18 222.623L1046.09 225.02C1044.85 227.754 1042.92 230.489 1040.29 233.223C1037.69 235.922 1034.39 238.177 1030.38 239.988C1026.4 241.799 1021.71 242.705 1016.32 242.705Z" fill="#144170"/>
<rect x="40" y="4" width="59.375" height="30" rx="3" fill="white"/>
<rect x="40.5" y="4.5" width="58.375" height="29" rx="2.5" stroke="black" stroke-opacity="0.2"/>
<path d="M51.3438 16C51.2969 15.6042 51.1068 15.2969 50.7734 15.0781C50.4401 14.8594 50.0313 14.75 49.5469 14.75C49.1927 14.75 48.8828 14.8073 48.6172 14.9219C48.3542 15.0365 48.1484 15.194 48 15.3945C47.8542 15.5951 47.7813 15.8229 47.7813 16.0781C47.7813 16.2917 47.832 16.4753 47.9336 16.6289C48.0378 16.7799 48.1706 16.9062 48.332 17.0078C48.4935 17.1068 48.6628 17.1888 48.8398 17.2539C49.0169 17.3164 49.1797 17.3672 49.3281 17.4062L50.1406 17.625C50.349 17.6797 50.5807 17.7552 50.8359 17.8516C51.0938 17.9479 51.3398 18.0794 51.5742 18.2461C51.8112 18.4102 52.0065 18.6211 52.1602 18.8789C52.3138 19.1367 52.3906 19.4531 52.3906 19.8281C52.3906 20.2604 52.2773 20.651 52.0508 21C51.8268 21.349 51.4987 21.6263 51.0664 21.832C50.6367 22.0378 50.1146 22.1406 49.5 22.1406C48.9271 22.1406 48.431 22.0482 48.0117 21.8633C47.5951 21.6784 47.2669 21.4206 47.0273 21.0898C46.7904 20.7591 46.6563 20.375 46.625 19.9375H47.625C47.651 20.2396 47.7526 20.4896 47.9297 20.6875C48.1094 20.8828 48.3359 21.0286 48.6094 21.125C48.8854 21.2187 49.1823 21.2656 49.5 21.2656C49.8698 21.2656 50.2018 21.2057 50.4961 21.0859C50.7904 20.9635 51.0234 20.7943 51.1953 20.5781C51.3672 20.3594 51.4531 20.1042 51.4531 19.8125C51.4531 19.5469 51.3789 19.3307 51.2305 19.1641C51.082 18.9974 50.8867 18.862 50.6445 18.7578C50.4023 18.6536 50.1406 18.5625 49.8594 18.4844L48.875 18.2031C48.25 18.0234 47.7552 17.7669 47.3906 17.4336C47.026 17.1003 46.8438 16.6641 46.8438 16.125C46.8438 15.6771 46.9648 15.2865 47.207 14.9531C47.4518 14.6172 47.7799 14.3568 48.1914 14.1719C48.6055 13.9844 49.0677 13.8906 49.5781 13.8906C50.0938 13.8906 50.5521 13.9831 50.9531 14.168C51.3542 14.3503 51.6719 14.6003 51.9062 14.918C52.1432 15.2357 52.2682 15.5964 52.2813 16H51.3438ZM56.374 22.125C55.7959 22.125 55.2972 21.9974 54.8779 21.7422C54.4613 21.4844 54.1396 21.125 53.9131 20.6641C53.6891 20.2005 53.5771 19.6615 53.5771 19.0469C53.5771 18.4323 53.6891 17.8906 53.9131 17.4219C54.1396 16.9505 54.4548 16.5833 54.8584 16.3203C55.2646 16.0547 55.7386 15.9219 56.2803 15.9219C56.5928 15.9219 56.9014 15.974 57.2061 16.0781C57.5107 16.1823 57.7881 16.3516 58.0381 16.5859C58.2881 16.8177 58.4873 17.125 58.6357 17.5078C58.7842 17.8906 58.8584 18.362 58.8584 18.9219V19.3125H54.2334V18.5156H57.9209C57.9209 18.1771 57.8532 17.875 57.7178 17.6094C57.585 17.3437 57.3949 17.1341 57.1475 16.9805C56.9027 16.8268 56.6136 16.75 56.2803 16.75C55.9131 16.75 55.5954 16.8411 55.3271 17.0234C55.0615 17.2031 54.8571 17.4375 54.7139 17.7266C54.5706 18.0156 54.499 18.3255 54.499 18.6562V19.1875C54.499 19.6406 54.5771 20.0247 54.7334 20.3398C54.8923 20.6523 55.1123 20.8906 55.3936 21.0547C55.6748 21.2161 56.0016 21.2969 56.374 21.2969C56.6162 21.2969 56.835 21.263 57.0303 21.1953C57.2282 21.125 57.3988 21.0208 57.542 20.8828C57.6852 20.7422 57.7959 20.5677 57.874 20.3594L58.7646 20.6094C58.6709 20.9115 58.5133 21.1771 58.292 21.4062C58.0706 21.6328 57.7972 21.8099 57.4717 21.9375C57.1462 22.0625 56.7803 22.125 56.374 22.125ZM62.6982 22.125C62.1357 22.125 61.6514 21.9922 61.2451 21.7266C60.8389 21.4609 60.5264 21.0951 60.3076 20.6289C60.0889 20.1628 59.9795 19.6302 59.9795 19.0312C59.9795 18.4219 60.0915 17.8841 60.3154 17.418C60.542 16.9492 60.8571 16.5833 61.2607 16.3203C61.667 16.0547 62.141 15.9219 62.6826 15.9219C63.1045 15.9219 63.4847 16 63.8232 16.1562C64.1618 16.3125 64.4391 16.5312 64.6553 16.8125C64.8714 17.0937 65.0055 17.4219 65.0576 17.7969H64.1357C64.0654 17.5234 63.9092 17.2812 63.667 17.0703C63.4274 16.8568 63.1045 16.75 62.6982 16.75C62.3389 16.75 62.0238 16.8437 61.7529 17.0312C61.4847 17.2161 61.2751 17.4779 61.124 17.8164C60.9756 18.1523 60.9014 18.5469 60.9014 19C60.9014 19.4635 60.9743 19.8672 61.1201 20.2109C61.2686 20.5547 61.4769 20.8216 61.7451 21.0117C62.016 21.2018 62.3337 21.2969 62.6982 21.2969C62.9378 21.2969 63.1553 21.2552 63.3506 21.1719C63.5459 21.0885 63.7113 20.9688 63.8467 20.8125C63.9821 20.6562 64.0785 20.4687 64.1357 20.25H65.0576C65.0055 20.6042 64.8766 20.9232 64.6709 21.207C64.4678 21.4883 64.1982 21.7122 63.8623 21.8789C63.529 22.043 63.141 22.125 62.6982 22.125ZM69.0146 16V16.7812H65.9053V16H69.0146ZM66.8115 14.5625H67.7334V20.2812C67.7334 20.5417 67.7712 20.737 67.8467 20.8672C67.9248 20.9948 68.0238 21.0807 68.1436 21.125C68.266 21.1667 68.3949 21.1875 68.5303 21.1875C68.6318 21.1875 68.7152 21.1823 68.7803 21.1719C68.8454 21.1589 68.8975 21.1484 68.9365 21.1406L69.124 21.9687C69.0615 21.9922 68.9743 22.0156 68.8623 22.0391C68.7503 22.0651 68.6084 22.0781 68.4365 22.0781C68.1761 22.0781 67.9209 22.0221 67.6709 21.9102C67.4235 21.7982 67.2178 21.6276 67.0537 21.3984C66.8923 21.1693 66.8115 20.8802 66.8115 20.5312V14.5625ZM70.4014 22V16H71.3232V22H70.4014ZM70.8701 15C70.6904 15 70.5355 14.9388 70.4053 14.8164C70.2777 14.694 70.2139 14.5469 70.2139 14.375C70.2139 14.2031 70.2777 14.056 70.4053 13.9336C70.5355 13.8112 70.6904 13.75 70.8701 13.75C71.0498 13.75 71.2035 13.8112 71.3311 13.9336C71.4613 14.056 71.5264 14.2031 71.5264 14.375C71.5264 14.5469 71.4613 14.694 71.3311 14.8164C71.2035 14.9388 71.0498 15 70.8701 15ZM75.4492 22.125C74.9076 22.125 74.4323 21.9961 74.0234 21.7383C73.6172 21.4805 73.2995 21.1198 73.0703 20.6562C72.8438 20.1927 72.7305 19.651 72.7305 19.0312C72.7305 18.4062 72.8438 17.8607 73.0703 17.3945C73.2995 16.9284 73.6172 16.5664 74.0234 16.3086C74.4323 16.0508 74.9076 15.9219 75.4492 15.9219C75.9909 15.9219 76.4648 16.0508 76.8711 16.3086C77.2799 16.5664 77.5977 16.9284 77.8242 17.3945C78.0534 17.8607 78.168 18.4062 78.168 19.0312C78.168 19.651 78.0534 20.1927 77.8242 20.6562C77.5977 21.1198 77.2799 21.4805 76.8711 21.7383C76.4648 21.9961 75.9909 22.125 75.4492 22.125ZM75.4492 21.2969C75.8607 21.2969 76.1992 21.1914 76.4648 20.9805C76.7305 20.7695 76.9271 20.4922 77.0547 20.1484C77.1823 19.8047 77.2461 19.4323 77.2461 19.0312C77.2461 18.6302 77.1823 18.2565 77.0547 17.9102C76.9271 17.5638 76.7305 17.2839 76.4648 17.0703C76.1992 16.8568 75.8607 16.75 75.4492 16.75C75.0378 16.75 74.6992 16.8568 74.4336 17.0703C74.168 17.2839 73.9714 17.5638 73.8438 17.9102C73.7161 18.2565 73.6523 18.6302 73.6523 19.0312C73.6523 19.4323 73.7161 19.8047 73.8438 20.1484C73.9714 20.4922 74.168 20.7695 74.4336 20.9805C74.6992 21.1914 75.0378 21.2969 75.4492 21.2969ZM80.4971 18.3906V22H79.5752V16H80.4658V16.9375H80.5439C80.6846 16.6328 80.8981 16.388 81.1846 16.2031C81.471 16.0156 81.8408 15.9219 82.2939 15.9219C82.7002 15.9219 83.0557 16.0052 83.3604 16.1719C83.665 16.3359 83.902 16.5859 84.0713 16.9219C84.2406 17.2552 84.3252 17.6771 84.3252 18.1875V22H83.4033V18.25C83.4033 17.7786 83.2809 17.4115 83.0361 17.1484C82.7913 16.8828 82.4554 16.75 82.0283 16.75C81.734 16.75 81.471 16.8138 81.2393 16.9414C81.0101 17.069 80.8291 17.2552 80.6963 17.5C80.5635 17.7448 80.4971 18.0417 80.4971 18.3906ZM91.9004 14V22H90.9316V15.0156H90.8848L88.9316 16.3125V15.3281L90.9316 14H91.9004Z" fill="black"/>
<defs>
<filter id="filter0_d_0_1" x="152.576" y="109.728" width="171.424" height="171.424" filterUnits="userSpaceOnUse" color-interpolation-filters="sRGB">
<feFlood flood-opacity="0" result="BackgroundImageFix"/>
<feColorMatrix in="SourceAlpha" type="matrix" values="0 0 0 0 0 0 0 0 0 0 0 0 0 0 0 0 0 0 127 0" result="hardAlpha"/>
<feOffset dy="4"/>
<feGaussianBlur stdDeviation="2"/>
<feComposite in2="hardAlpha" operator="out"/>
<feColorMatrix type="matrix" values="0 0 0 0 0 0 0 0 0 0 0 0 0 0 0 0 0 0 0.25 0"/>
<feBlend mode="normal" in2="BackgroundImageFix" result="effect1_dropShadow_0_1"/>
<feBlend mode="normal" in="SourceGraphic" in2="effect1_dropShadow_0_1" result="shape"/>
</filter>
</defs>
</svg>
